<mxfile host="Electron" agent="Mozilla/5.0 (Windows NT 10.0; Win64; x64) AppleWebKit/537.36 (KHTML, like Gecko) draw.io/24.7.17 Chrome/128.0.6613.36 Electron/32.0.1 Safari/537.36" version="24.7.17">
  <diagram name="Page-1" id="orbTkDAVe7XAcGa6APej">
    <mxGraphModel dx="1900" dy="1299" grid="0" gridSize="10" guides="1" tooltips="1" connect="1" arrows="1" fold="1" page="0" pageScale="1" pageWidth="1169" pageHeight="827" background="#FFFFFF" math="0" shadow="0">
      <root>
        <mxCell id="0" />
        <mxCell id="1" parent="0" />
        <mxCell id="q4TCAZ6g-jRqFP3uvYXG-9" value="" style="ellipse;shape=cloud;whiteSpace=wrap;html=1;fillColor=#e1d5e7;strokeColor=#9673a6;" parent="1" vertex="1">
          <mxGeometry x="120" y="414" width="350" height="346" as="geometry" />
        </mxCell>
        <mxCell id="Hbq8u7irhbDknvyJGnlx-6" value="" style="ellipse;shape=cloud;whiteSpace=wrap;html=1;fillColor=#fa6800;strokeColor=#C73500;opacity=60;rotation=-75;fontColor=#000000;" parent="1" vertex="1">
          <mxGeometry x="-49.99999999999999" y="404.79999999999995" width="288.2" height="284.6" as="geometry" />
        </mxCell>
        <mxCell id="Hbq8u7irhbDknvyJGnlx-1" value="" style="ellipse;shape=cloud;whiteSpace=wrap;html=1;fillColor=#a0522d;strokeColor=#6D1F00;opacity=60;fontColor=#ffffff;" parent="1" vertex="1">
          <mxGeometry x="100" y="645" width="473" height="427.6" as="geometry" />
        </mxCell>
        <mxCell id="q4TCAZ6g-jRqFP3uvYXG-8" value="" style="ellipse;shape=cloud;whiteSpace=wrap;html=1;fillColor=#e1d5e7;strokeColor=#9673a6;" parent="1" vertex="1">
          <mxGeometry x="680" y="330" width="490" height="497" as="geometry" />
        </mxCell>
        <mxCell id="q4TCAZ6g-jRqFP3uvYXG-112" value="" style="ellipse;shape=cloud;whiteSpace=wrap;html=1;fillColor=#a20025;strokeColor=#6F0000;opacity=60;fontColor=#ffffff;" parent="1" vertex="1">
          <mxGeometry x="558.2" y="613.5" width="310" height="293.6" as="geometry" />
        </mxCell>
        <mxCell id="q4TCAZ6g-jRqFP3uvYXG-113" value="" style="ellipse;shape=cloud;whiteSpace=wrap;html=1;fillColor=#008a00;strokeColor=#005700;opacity=60;fontColor=#ffffff;" parent="1" vertex="1">
          <mxGeometry x="835" y="699.2" width="343.2" height="350.8" as="geometry" />
        </mxCell>
        <mxCell id="q4TCAZ6g-jRqFP3uvYXG-114" value="" style="ellipse;shape=cloud;whiteSpace=wrap;html=1;rotation=-15;fillColor=#0050ef;strokeColor=#001DBC;opacity=60;fontColor=#ffffff;" parent="1" vertex="1">
          <mxGeometry x="1060.26" y="471.99" width="382.4" height="333.4" as="geometry" />
        </mxCell>
        <mxCell id="q4TCAZ6g-jRqFP3uvYXG-115" value="" style="ellipse;shape=cloud;whiteSpace=wrap;html=1;rotation=-15;fillColor=#60a917;strokeColor=#2D7600;opacity=60;fontColor=#ffffff;" parent="1" vertex="1">
          <mxGeometry x="923.48" y="96.45" width="500" height="432.98" as="geometry" />
        </mxCell>
        <mxCell id="q4TCAZ6g-jRqFP3uvYXG-10" value="" style="ellipse;shape=cloud;whiteSpace=wrap;html=1;fillColor=#6d8764;strokeColor=#3A5431;fontColor=#ffffff;" parent="1" vertex="1">
          <mxGeometry y="40" width="450" height="394" as="geometry" />
        </mxCell>
        <mxCell id="q4TCAZ6g-jRqFP3uvYXG-2" value="" style="ellipse;shape=cloud;whiteSpace=wrap;html=1;fillColor=#e3c800;strokeColor=#B09500;opacity=50;fontColor=#000000;" parent="1" vertex="1">
          <mxGeometry x="256.4" y="118.4" width="600" height="571" as="geometry" />
        </mxCell>
        <mxCell id="q4TCAZ6g-jRqFP3uvYXG-1" value="" style="image;html=1;image=img/lib/clip_art/networking/Router_Icon_128x128.png" parent="1" vertex="1">
          <mxGeometry x="480" y="374" width="80" height="80" as="geometry" />
        </mxCell>
        <mxCell id="q4TCAZ6g-jRqFP3uvYXG-3" value="" style="image;html=1;image=img/lib/clip_art/networking/Router_Icon_128x128.png" parent="1" vertex="1">
          <mxGeometry x="719.4" y="470" width="77" height="55" as="geometry" />
        </mxCell>
        <mxCell id="q4TCAZ6g-jRqFP3uvYXG-4" value="" style="image;html=1;image=img/lib/clip_art/networking/Router_Icon_128x128.png" parent="1" vertex="1">
          <mxGeometry x="340" y="510.00000000000006" width="80" height="66" as="geometry" />
        </mxCell>
        <mxCell id="q4TCAZ6g-jRqFP3uvYXG-5" value="" style="image;html=1;image=img/lib/clip_art/networking/Router_Icon_128x128.png" parent="1" vertex="1">
          <mxGeometry x="673.6" y="238.5" width="80" height="51" as="geometry" />
        </mxCell>
        <mxCell id="q4TCAZ6g-jRqFP3uvYXG-6" value="" style="image;html=1;image=img/lib/clip_art/networking/Router_Icon_128x128.png" parent="1" vertex="1">
          <mxGeometry x="340" y="270" width="80" height="80" as="geometry" />
        </mxCell>
        <mxCell id="q4TCAZ6g-jRqFP3uvYXG-11" value="" style="endArrow=none;html=1;rounded=0;" parent="1" source="q4TCAZ6g-jRqFP3uvYXG-97" target="q4TCAZ6g-jRqFP3uvYXG-3" edge="1">
          <mxGeometry width="50" height="50" relative="1" as="geometry">
            <mxPoint x="556" y="427" as="sourcePoint" />
            <mxPoint x="690" y="430" as="targetPoint" />
          </mxGeometry>
        </mxCell>
        <mxCell id="q4TCAZ6g-jRqFP3uvYXG-12" value="" style="endArrow=none;html=1;rounded=0;entryX=0;entryY=0.75;entryDx=0;entryDy=0;" parent="1" source="q4TCAZ6g-jRqFP3uvYXG-93" target="q4TCAZ6g-jRqFP3uvYXG-5" edge="1">
          <mxGeometry width="50" height="50" relative="1" as="geometry">
            <mxPoint x="547" y="391" as="sourcePoint" />
            <mxPoint x="669" y="285" as="targetPoint" />
          </mxGeometry>
        </mxCell>
        <mxCell id="q4TCAZ6g-jRqFP3uvYXG-13" value="" style="endArrow=none;html=1;rounded=0;" parent="1" source="WF_08_gXYST_sB0Zs1tU-38" edge="1">
          <mxGeometry width="50" height="50" relative="1" as="geometry">
            <mxPoint x="410" y="329" as="sourcePoint" />
            <mxPoint x="491" y="393" as="targetPoint" />
          </mxGeometry>
        </mxCell>
        <mxCell id="q4TCAZ6g-jRqFP3uvYXG-14" value="" style="endArrow=none;html=1;rounded=0;exitX=1;exitY=0;exitDx=0;exitDy=0;" parent="1" source="WF_08_gXYST_sB0Zs1tU-37" edge="1">
          <mxGeometry width="50" height="50" relative="1" as="geometry">
            <mxPoint x="426.4000000000001" y="532" as="sourcePoint" />
            <mxPoint x="489" y="433" as="targetPoint" />
          </mxGeometry>
        </mxCell>
        <mxCell id="q4TCAZ6g-jRqFP3uvYXG-15" value="Réseau secondaire entreprise" style="text;html=1;align=center;verticalAlign=middle;whiteSpace=wrap;rounded=0;fillColor=#dae8fc;strokeColor=#6c8ebf;" parent="1" vertex="1">
          <mxGeometry x="190" y="467" width="110" height="50" as="geometry" />
        </mxCell>
        <mxCell id="q4TCAZ6g-jRqFP3uvYXG-16" value="Réseau particuliers" style="text;html=1;align=center;verticalAlign=middle;whiteSpace=wrap;rounded=0;fillColor=#d5e8d4;strokeColor=#82b366;" parent="1" vertex="1">
          <mxGeometry x="178.2" y="70" width="110" height="50" as="geometry" />
        </mxCell>
        <mxCell id="q4TCAZ6g-jRqFP3uvYXG-17" value="Réseau primaire entreprise" style="text;html=1;align=center;verticalAlign=middle;whiteSpace=wrap;rounded=0;fillColor=#e1d5e7;strokeColor=#9673a6;" parent="1" vertex="1">
          <mxGeometry x="840" y="374" width="110" height="50" as="geometry" />
        </mxCell>
        <mxCell id="q4TCAZ6g-jRqFP3uvYXG-19" value="" style="curved=1;endArrow=classic;html=1;rounded=0;exitX=0.798;exitY=0.182;exitDx=0;exitDy=0;exitPerimeter=0;strokeWidth=8;" parent="1" source="q4TCAZ6g-jRqFP3uvYXG-2" edge="1">
          <mxGeometry width="50" height="50" relative="1" as="geometry">
            <mxPoint x="648.2" y="161" as="sourcePoint" />
            <mxPoint x="968.2" y="-17" as="targetPoint" />
            <Array as="points">
              <mxPoint x="798.2" y="163" />
              <mxPoint x="838.2" y="123" />
              <mxPoint x="858.2" y="23" />
            </Array>
          </mxGeometry>
        </mxCell>
        <mxCell id="WF_08_gXYST_sB0Zs1tU-25" value="&lt;font style=&quot;font-size: 16px;&quot;&gt;&lt;b&gt;Interconnection avec les peers&lt;/b&gt;&lt;/font&gt;" style="edgeLabel;html=1;align=center;verticalAlign=middle;resizable=0;points=[];" parent="q4TCAZ6g-jRqFP3uvYXG-19" vertex="1" connectable="0">
          <mxGeometry x="-0.0195" relative="1" as="geometry">
            <mxPoint x="-150" y="-14" as="offset" />
          </mxGeometry>
        </mxCell>
        <mxCell id="q4TCAZ6g-jRqFP3uvYXG-21" value="" style="image;html=1;image=img/lib/clip_art/computers/Server_Rack_128x128.png" parent="1" vertex="1">
          <mxGeometry x="1059" y="190" width="50" height="60" as="geometry" />
        </mxCell>
        <mxCell id="q4TCAZ6g-jRqFP3uvYXG-22" value="" style="image;html=1;image=img/lib/clip_art/computers/Server_Rack_128x128.png" parent="1" vertex="1">
          <mxGeometry x="1109" y="224" width="60" height="60" as="geometry" />
        </mxCell>
        <mxCell id="q4TCAZ6g-jRqFP3uvYXG-23" value="" style="endArrow=none;html=1;rounded=0;" parent="1" edge="1">
          <mxGeometry width="50" height="50" relative="1" as="geometry">
            <mxPoint x="1109" y="393" as="sourcePoint" />
            <mxPoint x="1072" y="244" as="targetPoint" />
          </mxGeometry>
        </mxCell>
        <mxCell id="q4TCAZ6g-jRqFP3uvYXG-24" value="" style="endArrow=none;html=1;rounded=0;" parent="1" edge="1">
          <mxGeometry width="50" height="50" relative="1" as="geometry">
            <mxPoint x="1116" y="391" as="sourcePoint" />
            <mxPoint x="1124" y="276" as="targetPoint" />
          </mxGeometry>
        </mxCell>
        <mxCell id="q4TCAZ6g-jRqFP3uvYXG-25" value="Serveur DNS Slave&lt;div&gt;192.168.1.3&lt;/div&gt;" style="text;html=1;align=center;verticalAlign=middle;whiteSpace=wrap;rounded=0;" parent="1" vertex="1">
          <mxGeometry x="1102.6" y="184" width="110" height="50" as="geometry" />
        </mxCell>
        <mxCell id="q4TCAZ6g-jRqFP3uvYXG-26" value="Serveur DNS Master&lt;div&gt;192.168.1.2&lt;/div&gt;" style="text;html=1;align=center;verticalAlign=middle;whiteSpace=wrap;rounded=0;" parent="1" vertex="1">
          <mxGeometry x="1050" y="150" width="119" height="50" as="geometry" />
        </mxCell>
        <mxCell id="q4TCAZ6g-jRqFP3uvYXG-33" value="" style="image;points=[];aspect=fixed;html=1;align=center;shadow=0;dashed=0;image=img/lib/allied_telesis/computer_and_terminals/Personal_Computer_with_Server.svg;" parent="1" vertex="1">
          <mxGeometry x="330" y="140" width="46.4" height="46.4" as="geometry" />
        </mxCell>
        <mxCell id="q4TCAZ6g-jRqFP3uvYXG-46" value="" style="image;points=[];aspect=fixed;html=1;align=center;shadow=0;dashed=0;image=img/lib/allied_telesis/computer_and_terminals/Personal_Computer_with_Server.svg;" parent="1" vertex="1">
          <mxGeometry x="271.8" y="842.7" width="46.4" height="46.4" as="geometry" />
        </mxCell>
        <mxCell id="q4TCAZ6g-jRqFP3uvYXG-47" value="" style="image;points=[];aspect=fixed;html=1;align=center;shadow=0;dashed=0;image=img/lib/allied_telesis/computer_and_terminals/Personal_Computer_with_Server.svg;" parent="1" vertex="1">
          <mxGeometry x="433.2" y="827" width="46.4" height="46.4" as="geometry" />
        </mxCell>
        <mxCell id="q4TCAZ6g-jRqFP3uvYXG-48" value="" style="image;points=[];aspect=fixed;html=1;align=center;shadow=0;dashed=0;image=img/lib/allied_telesis/computer_and_terminals/Personal_Computer_with_Server.svg;" parent="1" vertex="1">
          <mxGeometry x="37.20000000000002" y="423.6" width="46.4" height="46.4" as="geometry" />
        </mxCell>
        <mxCell id="q4TCAZ6g-jRqFP3uvYXG-49" value="" style="image;points=[];aspect=fixed;html=1;align=center;shadow=0;dashed=0;image=img/lib/allied_telesis/computer_and_terminals/Personal_Computer_with_Server.svg;" parent="1" vertex="1">
          <mxGeometry x="-19.99999999999998" y="525" width="46.4" height="46.4" as="geometry" />
        </mxCell>
        <mxCell id="q4TCAZ6g-jRqFP3uvYXG-50" value="" style="endArrow=none;html=1;rounded=0;exitX=0;exitY=0.5;exitDx=0;exitDy=0;" parent="1" source="q4TCAZ6g-jRqFP3uvYXG-4" edge="1">
          <mxGeometry width="50" height="50" relative="1" as="geometry">
            <mxPoint x="333" y="558" as="sourcePoint" />
            <mxPoint x="219" y="561" as="targetPoint" />
          </mxGeometry>
        </mxCell>
        <mxCell id="q4TCAZ6g-jRqFP3uvYXG-53" value="" style="endArrow=none;html=1;rounded=0;entryX=0;entryY=0.25;entryDx=0;entryDy=0;" parent="1" target="q4TCAZ6g-jRqFP3uvYXG-109" edge="1">
          <mxGeometry width="50" height="50" relative="1" as="geometry">
            <mxPoint x="334" y="686" as="sourcePoint" />
            <mxPoint x="360" y="570" as="targetPoint" />
          </mxGeometry>
        </mxCell>
        <mxCell id="q4TCAZ6g-jRqFP3uvYXG-54" value="" style="endArrow=none;html=1;rounded=0;exitX=0.923;exitY=0.471;exitDx=0;exitDy=0;entryX=0.02;entryY=0.569;entryDx=0;entryDy=0;entryPerimeter=0;exitPerimeter=0;" parent="1" source="q4TCAZ6g-jRqFP3uvYXG-148" target="q4TCAZ6g-jRqFP3uvYXG-47" edge="1">
          <mxGeometry width="50" height="50" relative="1" as="geometry">
            <mxPoint x="346.39999999999986" y="694" as="sourcePoint" />
            <mxPoint x="370" y="580" as="targetPoint" />
          </mxGeometry>
        </mxCell>
        <mxCell id="q4TCAZ6g-jRqFP3uvYXG-55" value="" style="endArrow=none;html=1;rounded=0;entryX=0;entryY=0.5;entryDx=0;entryDy=0;" parent="1" target="q4TCAZ6g-jRqFP3uvYXG-148" edge="1">
          <mxGeometry width="50" height="50" relative="1" as="geometry">
            <mxPoint x="310" y="850" as="sourcePoint" />
            <mxPoint x="290" y="694" as="targetPoint" />
          </mxGeometry>
        </mxCell>
        <mxCell id="q4TCAZ6g-jRqFP3uvYXG-56" value="" style="endArrow=none;html=1;rounded=0;exitX=1.05;exitY=0.717;exitDx=0;exitDy=0;exitPerimeter=0;" parent="1" source="q4TCAZ6g-jRqFP3uvYXG-49" edge="1">
          <mxGeometry width="50" height="50" relative="1" as="geometry">
            <mxPoint x="146.4" y="595.7" as="sourcePoint" />
            <mxPoint x="88" y="563" as="targetPoint" />
          </mxGeometry>
        </mxCell>
        <mxCell id="q4TCAZ6g-jRqFP3uvYXG-58" value="" style="endArrow=none;html=1;rounded=0;exitX=0.323;exitY=0.961;exitDx=0;exitDy=0;exitPerimeter=0;" parent="1" source="q4TCAZ6g-jRqFP3uvYXG-48" edge="1">
          <mxGeometry width="50" height="50" relative="1" as="geometry">
            <mxPoint x="200" y="560" as="sourcePoint" />
            <mxPoint x="107" y="546" as="targetPoint" />
          </mxGeometry>
        </mxCell>
        <mxCell id="q4TCAZ6g-jRqFP3uvYXG-59" value="" style="image;html=1;image=img/lib/clip_art/computers/Server_Rack_128x128.png" parent="1" vertex="1">
          <mxGeometry x="1169" y="234" width="60" height="60" as="geometry" />
        </mxCell>
        <mxCell id="q4TCAZ6g-jRqFP3uvYXG-60" value="" style="image;html=1;image=img/lib/clip_art/computers/Server_Rack_128x128.png" parent="1" vertex="1">
          <mxGeometry x="1286" y="254" width="60" height="60" as="geometry" />
        </mxCell>
        <mxCell id="q4TCAZ6g-jRqFP3uvYXG-61" value="" style="endArrow=none;html=1;rounded=0;" parent="1" edge="1">
          <mxGeometry width="50" height="50" relative="1" as="geometry">
            <mxPoint x="1123" y="390" as="sourcePoint" />
            <mxPoint x="1182" y="283" as="targetPoint" />
          </mxGeometry>
        </mxCell>
        <mxCell id="q4TCAZ6g-jRqFP3uvYXG-62" value="" style="endArrow=none;html=1;rounded=0;exitX=1;exitY=0.25;exitDx=0;exitDy=0;" parent="1" source="WF_08_gXYST_sB0Zs1tU-8" edge="1">
          <mxGeometry width="50" height="50" relative="1" as="geometry">
            <mxPoint x="868" y="538" as="sourcePoint" />
            <mxPoint x="1022" y="456" as="targetPoint" />
          </mxGeometry>
        </mxCell>
        <mxCell id="q4TCAZ6g-jRqFP3uvYXG-63" value="Serveur FTP&lt;br&gt;&lt;div&gt;&lt;span style=&quot;background-color: initial;&quot;&gt;192.168.1.4&lt;/span&gt;&lt;span style=&quot;color: rgba(0, 0, 0, 0); font-family: monospace; font-size: 0px; text-align: start; text-wrap-mode: nowrap;&quot;&gt;%3CmxGraphModel%3E%3Croot%3E%3CmxCell%20id%3D%220%22%2F%3E%3CmxCell%20id%3D%221%22%20parent%3D%220%22%2F%3E%3CmxCell%20id%3D%222%22%20value%3D%22Serveur%20mail%22%20style%3D%22text%3Bhtml%3D1%3Balign%3Dcenter%3BverticalAlign%3Dmiddle%3BwhiteSpace%3Dwrap%3Brounded%3D0%3B%22%20vertex%3D%221%22%20parent%3D%221%22%3E%3CmxGeometry%20x%3D%221010%22%20y%3D%22454%22%20width%3D%22110%22%20height%3D%2250%22%20as%3D%22geometry%22%2F%3E%3C%2FmxCell%3E%3C%2Froot%3E%3C%2FmxGraphModel%3E&lt;/span&gt;&lt;/div&gt;" style="text;html=1;align=center;verticalAlign=middle;whiteSpace=wrap;rounded=0;" parent="1" vertex="1">
          <mxGeometry x="1155" y="280.99999999999994" width="110" height="50" as="geometry" />
        </mxCell>
        <mxCell id="q4TCAZ6g-jRqFP3uvYXG-64" value="&lt;font style=&quot;font-size: 13px;&quot;&gt;Serveur Mail&lt;/font&gt;&lt;div style=&quot;font-size: 13px;&quot;&gt;&lt;font style=&quot;font-size: 13px;&quot;&gt;192.168.1.5&lt;/font&gt;&lt;/div&gt;" style="text;html=1;align=center;verticalAlign=middle;whiteSpace=wrap;rounded=0;" parent="1" vertex="1">
          <mxGeometry x="1267" y="300" width="110" height="50" as="geometry" />
        </mxCell>
        <mxCell id="q4TCAZ6g-jRqFP3uvYXG-65" value="" style="image;html=1;image=img/lib/clip_art/networking/Router_Icon_128x128.png" parent="1" vertex="1">
          <mxGeometry x="753.6" y="660.0000000000001" width="56.4" height="68" as="geometry" />
        </mxCell>
        <mxCell id="q4TCAZ6g-jRqFP3uvYXG-66" value="" style="image;html=1;image=img/lib/clip_art/networking/Router_Icon_128x128.png" parent="1" vertex="1">
          <mxGeometry x="1089.6" y="614.8000000000001" width="56.4" height="68" as="geometry" />
        </mxCell>
        <mxCell id="q4TCAZ6g-jRqFP3uvYXG-67" value="" style="image;points=[];aspect=fixed;html=1;align=center;shadow=0;dashed=0;image=img/lib/allied_telesis/computer_and_terminals/Personal_Computer_with_Server.svg;" parent="1" vertex="1">
          <mxGeometry x="1324.6" y="557.4000000000001" width="46.4" height="46.4" as="geometry" />
        </mxCell>
        <mxCell id="q4TCAZ6g-jRqFP3uvYXG-68" value="" style="image;points=[];aspect=fixed;html=1;align=center;shadow=0;dashed=0;image=img/lib/allied_telesis/computer_and_terminals/Personal_Computer_with_Server.svg;" parent="1" vertex="1">
          <mxGeometry x="1330.6" y="652.8000000000002" width="46.4" height="46.4" as="geometry" />
        </mxCell>
        <mxCell id="q4TCAZ6g-jRqFP3uvYXG-69" value="" style="image;points=[];aspect=fixed;html=1;align=center;shadow=0;dashed=0;image=img/lib/allied_telesis/computer_and_terminals/Personal_Computer_with_Server.svg;" parent="1" vertex="1">
          <mxGeometry x="703.6" y="830.6" width="46.4" height="46.4" as="geometry" />
        </mxCell>
        <mxCell id="q4TCAZ6g-jRqFP3uvYXG-70" value="" style="image;points=[];aspect=fixed;html=1;align=center;shadow=0;dashed=0;image=img/lib/allied_telesis/computer_and_terminals/Personal_Computer_with_Server.svg;" parent="1" vertex="1">
          <mxGeometry x="598.8" y="720.0000000000001" width="46.4" height="46.4" as="geometry" />
        </mxCell>
        <mxCell id="q4TCAZ6g-jRqFP3uvYXG-71" value="" style="endArrow=none;html=1;rounded=0;exitX=0;exitY=0.75;exitDx=0;exitDy=0;" parent="1" target="q4TCAZ6g-jRqFP3uvYXG-65" edge="1">
          <mxGeometry width="50" height="50" relative="1" as="geometry">
            <mxPoint x="867.52" y="567.5500000000002" as="sourcePoint" />
            <mxPoint x="811" y="678.8" as="targetPoint" />
          </mxGeometry>
        </mxCell>
        <mxCell id="q4TCAZ6g-jRqFP3uvYXG-72" value="" style="endArrow=none;html=1;rounded=0;entryX=1;entryY=0.5;entryDx=0;entryDy=0;" parent="1" source="WF_08_gXYST_sB0Zs1tU-6" target="WF_08_gXYST_sB0Zs1tU-2" edge="1">
          <mxGeometry width="50" height="50" relative="1" as="geometry">
            <mxPoint x="1090" y="640" as="sourcePoint" />
            <mxPoint x="930" y="571" as="targetPoint" />
          </mxGeometry>
        </mxCell>
        <mxCell id="q4TCAZ6g-jRqFP3uvYXG-73" value="" style="endArrow=none;html=1;rounded=0;" parent="1" edge="1">
          <mxGeometry width="50" height="50" relative="1" as="geometry">
            <mxPoint x="1146" y="643" as="sourcePoint" />
            <mxPoint x="1241" y="642" as="targetPoint" />
          </mxGeometry>
        </mxCell>
        <mxCell id="q4TCAZ6g-jRqFP3uvYXG-74" value="" style="endArrow=none;html=1;rounded=0;" parent="1" edge="1">
          <mxGeometry width="50" height="50" relative="1" as="geometry">
            <mxPoint x="1278" y="631" as="sourcePoint" />
            <mxPoint x="1327" y="588" as="targetPoint" />
          </mxGeometry>
        </mxCell>
        <mxCell id="q4TCAZ6g-jRqFP3uvYXG-75" value="" style="endArrow=none;html=1;rounded=0;exitX=1.05;exitY=0.717;exitDx=0;exitDy=0;exitPerimeter=0;" parent="1" source="q4TCAZ6g-jRqFP3uvYXG-70" edge="1">
          <mxGeometry width="50" height="50" relative="1" as="geometry">
            <mxPoint x="790" y="653.1000000000001" as="sourcePoint" />
            <mxPoint x="703" y="752" as="targetPoint" />
          </mxGeometry>
        </mxCell>
        <mxCell id="q4TCAZ6g-jRqFP3uvYXG-76" value="" style="endArrow=none;html=1;rounded=0;" parent="1" edge="1">
          <mxGeometry width="50" height="50" relative="1" as="geometry">
            <mxPoint x="731" y="833" as="sourcePoint" />
            <mxPoint x="724" y="768" as="targetPoint" />
          </mxGeometry>
        </mxCell>
        <mxCell id="q4TCAZ6g-jRqFP3uvYXG-77" value="" style="image;html=1;image=img/lib/clip_art/networking/Router_Icon_128x128.png" parent="1" vertex="1">
          <mxGeometry x="951.8000000000001" y="737.3900000000001" width="56.4" height="68" as="geometry" />
        </mxCell>
        <mxCell id="q4TCAZ6g-jRqFP3uvYXG-78" value="" style="image;points=[];aspect=fixed;html=1;align=center;shadow=0;dashed=0;image=img/lib/allied_telesis/computer_and_terminals/Personal_Computer_with_Server.svg;" parent="1" vertex="1">
          <mxGeometry x="1000" y="946.4000000000001" width="46.4" height="46.4" as="geometry" />
        </mxCell>
        <mxCell id="q4TCAZ6g-jRqFP3uvYXG-79" value="" style="image;points=[];aspect=fixed;html=1;align=center;shadow=0;dashed=0;image=img/lib/allied_telesis/computer_and_terminals/Personal_Computer_with_Server.svg;" parent="1" vertex="1">
          <mxGeometry x="1102.6000000000001" y="900.0000000000001" width="46.4" height="46.4" as="geometry" />
        </mxCell>
        <mxCell id="q4TCAZ6g-jRqFP3uvYXG-80" value="" style="endArrow=none;html=1;rounded=0;" parent="1" source="q4TCAZ6g-jRqFP3uvYXG-107" edge="1">
          <mxGeometry width="50" height="50" relative="1" as="geometry">
            <mxPoint x="876" y="559" as="sourcePoint" />
            <mxPoint x="969" y="753" as="targetPoint" />
          </mxGeometry>
        </mxCell>
        <mxCell id="q4TCAZ6g-jRqFP3uvYXG-81" value="" style="endArrow=none;html=1;rounded=0;exitX=0.37;exitY=0.072;exitDx=0;exitDy=0;exitPerimeter=0;" parent="1" source="q4TCAZ6g-jRqFP3uvYXG-79" edge="1">
          <mxGeometry width="50" height="50" relative="1" as="geometry">
            <mxPoint x="920" y="615.1000000000001" as="sourcePoint" />
            <mxPoint x="1050" y="853" as="targetPoint" />
          </mxGeometry>
        </mxCell>
        <mxCell id="q4TCAZ6g-jRqFP3uvYXG-82" value="" style="endArrow=none;html=1;rounded=0;" parent="1" edge="1">
          <mxGeometry width="50" height="50" relative="1" as="geometry">
            <mxPoint x="1024" y="947" as="sourcePoint" />
            <mxPoint x="1023" y="861" as="targetPoint" />
          </mxGeometry>
        </mxCell>
        <mxCell id="q4TCAZ6g-jRqFP3uvYXG-87" value="" style="image;html=1;image=img/lib/clip_art/networking/Switch_128x128.png" parent="1" vertex="1">
          <mxGeometry x="256.4" y="239.5" width="50" height="57" as="geometry" />
        </mxCell>
        <mxCell id="q4TCAZ6g-jRqFP3uvYXG-88" value="" style="endArrow=none;html=1;rounded=0;" parent="1" edge="1">
          <mxGeometry width="50" height="50" relative="1" as="geometry">
            <mxPoint x="288" y="254" as="sourcePoint" />
            <mxPoint x="334" y="172" as="targetPoint" />
          </mxGeometry>
        </mxCell>
        <mxCell id="q4TCAZ6g-jRqFP3uvYXG-90" value="" style="endArrow=none;html=1;rounded=0;entryX=0.987;entryY=0.851;entryDx=0;entryDy=0;entryPerimeter=0;" parent="1" edge="1">
          <mxGeometry width="50" height="50" relative="1" as="geometry">
            <mxPoint x="267" y="258" as="sourcePoint" />
            <mxPoint x="179.39679999999998" y="189.4864" as="targetPoint" />
          </mxGeometry>
        </mxCell>
        <mxCell id="q4TCAZ6g-jRqFP3uvYXG-92" value="" style="endArrow=none;html=1;rounded=0;exitX=0.036;exitY=0.341;exitDx=0;exitDy=0;exitPerimeter=0;entryX=0.951;entryY=0.607;entryDx=0;entryDy=0;entryPerimeter=0;" parent="1" source="q4TCAZ6g-jRqFP3uvYXG-6" target="q4TCAZ6g-jRqFP3uvYXG-87" edge="1">
          <mxGeometry width="50" height="50" relative="1" as="geometry">
            <mxPoint x="341" y="280" as="sourcePoint" />
            <mxPoint x="377" y="226" as="targetPoint" />
          </mxGeometry>
        </mxCell>
        <mxCell id="q4TCAZ6g-jRqFP3uvYXG-94" value="120.0.176.2" style="text;html=1;align=center;verticalAlign=middle;whiteSpace=wrap;rounded=0;" parent="1" vertex="1">
          <mxGeometry x="603" y="244.4" width="60" height="30" as="geometry" />
        </mxCell>
        <mxCell id="q4TCAZ6g-jRqFP3uvYXG-99" value="" style="image;html=1;image=img/lib/clip_art/computers/Server_Rack_128x128.png" parent="1" vertex="1">
          <mxGeometry x="1241.2" y="340" width="60" height="60" as="geometry" />
        </mxCell>
        <mxCell id="q4TCAZ6g-jRqFP3uvYXG-100" value="" style="endArrow=none;html=1;rounded=0;" parent="1" edge="1">
          <mxGeometry width="50" height="50" relative="1" as="geometry">
            <mxPoint x="1066" y="430" as="sourcePoint" />
            <mxPoint x="1099" y="412" as="targetPoint" />
          </mxGeometry>
        </mxCell>
        <mxCell id="q4TCAZ6g-jRqFP3uvYXG-101" value="Serveur VoIP&lt;div&gt;192.168.1.6&lt;/div&gt;" style="text;html=1;align=center;verticalAlign=middle;whiteSpace=wrap;rounded=0;" parent="1" vertex="1">
          <mxGeometry x="1261" y="384" width="110" height="50" as="geometry" />
        </mxCell>
        <mxCell id="q4TCAZ6g-jRqFP3uvYXG-102" value="" style="image;html=1;image=img/lib/clip_art/computers/Server_Rack_128x128.png" parent="1" vertex="1">
          <mxGeometry x="1207" y="424.99999999999994" width="60" height="60" as="geometry" />
        </mxCell>
        <mxCell id="q4TCAZ6g-jRqFP3uvYXG-103" value="" style="endArrow=none;html=1;rounded=0;" parent="1" edge="1">
          <mxGeometry width="50" height="50" relative="1" as="geometry">
            <mxPoint x="1131" y="391" as="sourcePoint" />
            <mxPoint x="1299" y="292" as="targetPoint" />
          </mxGeometry>
        </mxCell>
        <mxCell id="q4TCAZ6g-jRqFP3uvYXG-104" value="Serveur&amp;nbsp;&lt;span style=&quot;color: rgba(0, 0, 0, 0); font-family: monospace; font-size: 0px; text-align: start; text-wrap-mode: nowrap;&quot;&gt;%3CmxGraphModel%3E%3Croot%3E%3CmxCell%20id%3D%220%22%2F%3E%3CmxCell%20id%3D%221%22%20parent%3D%220%22%2F%3E%3CmxCell%20id%3D%222%22%20value%3D%22%22%20style%3D%22endArrow%3Dnone%3Bhtml%3D1%3Brounded%3D0%3B%22%20edge%3D%221%22%20parent%3D%221%22%3E%3CmxGeometry%20width%3D%2250%22%20height%3D%2250%22%20relative%3D%221%22%20as%3D%22geometry%22%3E%3CmxPoint%20x%3D%221131%22%20y%3D%22391%22%20as%3D%22sourcePoint%22%2F%3E%3CmxPoint%20x%3D%221299%22%20y%3D%22292%22%20as%3D%22targetPoint%22%2F%3E%3C%2FmxGeometry%3E%3C%2FmxCell%3E%3C%2Froot%3E%3C%2FmxGraphModel%3E&lt;/span&gt;&lt;span style=&quot;color: rgba(0, 0, 0, 0); font-family: monospace; font-size: 0px; text-align: start; text-wrap-mode: nowrap;&quot;&gt;%3CmxGraphModel%3E%3Croot%3E%3CmxCell%20id%3D%220%22%2F%3E%3CmxCell%20id%3D%221%22%20parent%3D%220%22%2F%3E%3CmxCell%20id%3D%222%22%20value%3D%22%22%20style%3D%22endArrow%3Dnone%3Bhtml%3D1%3Brounded%3D0%3B%22%20edge%3D%221%22%20parent%3D%221%22%3E%3CmxGeometry%20width%3D%2250%22%20height%3D%2250%22%20relative%3D%221%22%20as%3D%22geometry%22%3E%3CmxPoint%20x%3D%221131%22%20y%3D%22391%22%20as%3D%22sourcePoint%22%2F%3E%3CmxPoint%20x%3D%221299%22%20y%3D%22292%22%20as%3D%22targetPoint%22%2F%3E%3C%2FmxGeometry%3E%3C%2FmxCell%3E%3C%2Froot%3E%3C%2FmxGraphModel%3E&lt;/span&gt;VPN&lt;div&gt;192.168.1.7&lt;/div&gt;" style="text;html=1;align=center;verticalAlign=middle;whiteSpace=wrap;rounded=0;" parent="1" vertex="1">
          <mxGeometry x="1241.2" y="434" width="110" height="50" as="geometry" />
        </mxCell>
        <mxCell id="q4TCAZ6g-jRqFP3uvYXG-109" value="10.10.10.2" style="text;html=1;align=center;verticalAlign=middle;whiteSpace=wrap;rounded=0;" parent="1" vertex="1">
          <mxGeometry x="373.2" y="558" width="60" height="30" as="geometry" />
        </mxCell>
        <mxCell id="q4TCAZ6g-jRqFP3uvYXG-132" value="" style="image;html=1;image=img/lib/clip_art/networking/Router_Icon_128x128.png" parent="1" vertex="1">
          <mxGeometry x="1019" y="413.20000000000005" width="56.4" height="68" as="geometry" />
        </mxCell>
        <mxCell id="q4TCAZ6g-jRqFP3uvYXG-133" value="" style="image;html=1;image=img/lib/clip_art/networking/Switch_128x128.png" parent="1" vertex="1">
          <mxGeometry x="1092.8" y="374" width="50" height="57" as="geometry" />
        </mxCell>
        <mxCell id="q4TCAZ6g-jRqFP3uvYXG-134" value="" style="endArrow=none;html=1;rounded=0;" parent="1" edge="1">
          <mxGeometry width="50" height="50" relative="1" as="geometry">
            <mxPoint x="1141" y="401" as="sourcePoint" />
            <mxPoint x="1254" y="366" as="targetPoint" />
          </mxGeometry>
        </mxCell>
        <mxCell id="q4TCAZ6g-jRqFP3uvYXG-135" value="" style="endArrow=none;html=1;rounded=0;" parent="1" edge="1">
          <mxGeometry width="50" height="50" relative="1" as="geometry">
            <mxPoint x="1139" y="408" as="sourcePoint" />
            <mxPoint x="1219" y="455" as="targetPoint" />
          </mxGeometry>
        </mxCell>
        <mxCell id="q4TCAZ6g-jRqFP3uvYXG-136" value="&lt;span style=&quot;color: rgba(0, 0, 0, 0); font-family: monospace; font-size: 0px; text-align: start; text-wrap-mode: nowrap;&quot;&gt;%3CmxGraphModel%3E%3Croot%3E%3CmxCell%20id%3D%220%22%2F%3E%3CmxCell%20id%3D%221%22%20parent%3D%220%22%2F%3E%3CmxCell%20id%3D%222%22%20value%3D%22%22%20style%3D%22endArrow%3Dnone%3Bhtml%3D1%3Brounded%3D0%3B%22%20edge%3D%221%22%20parent%3D%221%22%3E%3CmxGeometry%20width%3D%2250%22%20height%3D%2250%22%20relative%3D%221%22%20as%3D%22geometry%22%3E%3CmxPoint%20x%3D%221131%22%20y%3D%22391%22%20as%3D%22sourcePoint%22%2F%3E%3CmxPoint%20x%3D%221299%22%20y%3D%22292%22%20as%3D%22targetPoint%22%2F%3E%3C%2FmxGeometry%3E%3C%2FmxCell%3E%3C%2Froot%3E%3C%2FmxGraphModel%3E&lt;/span&gt;&lt;span style=&quot;color: rgba(0, 0, 0, 0); font-family: monospace; font-size: 0px; text-align: start; text-wrap-mode: nowrap;&quot;&gt;%3CmxGraphModel%3E%3Croot%3E%3CmxCell%20id%3D%220%22%2F%3E%3CmxCell%20id%3D%221%22%20parent%3D%220%22%2F%3E%3CmxCell%20id%3D%222%22%20value%3D%22%22%20style%3D%22endArrow%3Dnone%3Bhtml%3D1%3Brounded%3D0%3B%22%20edge%3D%221%22%20parent%3D%221%22%3E%3CmxGeometry%20width%3D%2250%22%20height%3D%2250%22%20relative%3D%221%22%20as%3D%22geometry%22%3E%3CmxPoint%20x%3D%221131%22%20y%3D%22391%22%20as%3D%22sourcePoint%22%2F%3E%3CmxPoint%20x%3D%221299%22%20y%3D%22292%22%20as%3D%22targetPoint%22%2F%3E%3C%2FmxGeometry%3E%3C%2FmxCell%3E%3C%2Froot%3E%3&lt;/span&gt;&lt;span style=&quot;background-color: initial;&quot;&gt;192.168.1.1&lt;/span&gt;" style="text;html=1;align=center;verticalAlign=middle;whiteSpace=wrap;rounded=0;" parent="1" vertex="1">
          <mxGeometry x="1060" y="413.2" width="110" height="50" as="geometry" />
        </mxCell>
        <mxCell id="q4TCAZ6g-jRqFP3uvYXG-137" value="&lt;div style=&quot;font-size: 15px;&quot;&gt;&lt;b style=&quot;background-color: initial;&quot;&gt;20.20.1.0/30&lt;/b&gt;&lt;br&gt;&lt;/div&gt;" style="text;html=1;align=center;verticalAlign=middle;whiteSpace=wrap;rounded=0;" parent="1" vertex="1">
          <mxGeometry x="866.8" y="651" width="110" height="50" as="geometry" />
        </mxCell>
        <mxCell id="q4TCAZ6g-jRqFP3uvYXG-138" value="" style="image;html=1;image=img/lib/clip_art/networking/Switch_128x128.png" parent="1" vertex="1">
          <mxGeometry x="1241.2" y="613.5" width="50" height="57" as="geometry" />
        </mxCell>
        <mxCell id="q4TCAZ6g-jRqFP3uvYXG-139" value="" style="endArrow=none;html=1;rounded=0;" parent="1" edge="1">
          <mxGeometry width="50" height="50" relative="1" as="geometry">
            <mxPoint x="1279" y="650" as="sourcePoint" />
            <mxPoint x="1329" y="671" as="targetPoint" />
          </mxGeometry>
        </mxCell>
        <mxCell id="q4TCAZ6g-jRqFP3uvYXG-140" value="192.168.2.1" style="text;html=1;align=center;verticalAlign=middle;whiteSpace=wrap;rounded=0;" parent="1" vertex="1">
          <mxGeometry x="1152.6000000000001" y="640.4" width="60" height="30" as="geometry" />
        </mxCell>
        <mxCell id="q4TCAZ6g-jRqFP3uvYXG-141" value="" style="image;html=1;image=img/lib/clip_art/networking/Switch_128x128.png" parent="1" vertex="1">
          <mxGeometry x="1008.2" y="820" width="50" height="57" as="geometry" />
        </mxCell>
        <mxCell id="q4TCAZ6g-jRqFP3uvYXG-142" value="" style="image;html=1;image=img/lib/clip_art/networking/Switch_128x128.png" parent="1" vertex="1">
          <mxGeometry x="703.6" y="728" width="50" height="57" as="geometry" />
        </mxCell>
        <mxCell id="q4TCAZ6g-jRqFP3uvYXG-143" value="" style="endArrow=none;html=1;rounded=0;" parent="1" edge="1">
          <mxGeometry width="50" height="50" relative="1" as="geometry">
            <mxPoint x="739" y="744" as="sourcePoint" />
            <mxPoint x="765" y="710" as="targetPoint" />
          </mxGeometry>
        </mxCell>
        <mxCell id="q4TCAZ6g-jRqFP3uvYXG-144" value="" style="endArrow=none;html=1;rounded=0;" parent="1" edge="1">
          <mxGeometry width="50" height="50" relative="1" as="geometry">
            <mxPoint x="995" y="787" as="sourcePoint" />
            <mxPoint x="1024" y="837" as="targetPoint" />
          </mxGeometry>
        </mxCell>
        <mxCell id="q4TCAZ6g-jRqFP3uvYXG-145" value="192.168.3.1" style="text;html=1;align=center;verticalAlign=middle;whiteSpace=wrap;rounded=0;" parent="1" vertex="1">
          <mxGeometry x="741.5" y="701" width="60" height="30" as="geometry" />
        </mxCell>
        <mxCell id="q4TCAZ6g-jRqFP3uvYXG-146" value="192.168.9.1" style="text;html=1;align=center;verticalAlign=middle;whiteSpace=wrap;rounded=0;" parent="1" vertex="1">
          <mxGeometry x="1008.1999999999999" y="775.39" width="60" height="30" as="geometry" />
        </mxCell>
        <mxCell id="q4TCAZ6g-jRqFP3uvYXG-147" value="" style="image;html=1;image=img/lib/clip_art/networking/Switch_128x128.png" parent="1" vertex="1">
          <mxGeometry x="83.60000000000005" y="529.4300000000001" width="50" height="57" as="geometry" />
        </mxCell>
        <mxCell id="q4TCAZ6g-jRqFP3uvYXG-148" value="" style="image;html=1;image=img/lib/clip_art/networking/Switch_128x128.png" parent="1" vertex="1">
          <mxGeometry x="340" y="800" width="50" height="57" as="geometry" />
        </mxCell>
        <mxCell id="Hbq8u7irhbDknvyJGnlx-3" value="" style="image;html=1;image=img/lib/clip_art/networking/Router_Icon_128x128.png" parent="1" vertex="1">
          <mxGeometry x="300" y="672.99" width="60" height="64.4" as="geometry" />
        </mxCell>
        <mxCell id="Hbq8u7irhbDknvyJGnlx-4" value="" style="endArrow=none;html=1;rounded=0;" parent="1" edge="1">
          <mxGeometry width="50" height="50" relative="1" as="geometry">
            <mxPoint x="355" y="818" as="sourcePoint" />
            <mxPoint x="334" y="724" as="targetPoint" />
          </mxGeometry>
        </mxCell>
        <mxCell id="Hbq8u7irhbDknvyJGnlx-5" value="" style="image;html=1;image=img/lib/clip_art/networking/Router_Icon_128x128.png" parent="1" vertex="1">
          <mxGeometry x="160" y="542" width="60" height="38" as="geometry" />
        </mxCell>
        <mxCell id="Hbq8u7irhbDknvyJGnlx-7" value="" style="endArrow=none;html=1;rounded=0;" parent="1" edge="1">
          <mxGeometry width="50" height="50" relative="1" as="geometry">
            <mxPoint x="161" y="560" as="sourcePoint" />
            <mxPoint x="133" y="564" as="targetPoint" />
          </mxGeometry>
        </mxCell>
        <mxCell id="Hbq8u7irhbDknvyJGnlx-8" value="10.10.20.1" style="text;html=1;align=center;verticalAlign=middle;whiteSpace=wrap;rounded=0;" parent="1" vertex="1">
          <mxGeometry x="203.19999999999996" y="572" width="60" height="30" as="geometry" />
        </mxCell>
        <mxCell id="Hbq8u7irhbDknvyJGnlx-9" value="10.10.10.1" style="text;html=1;align=center;verticalAlign=middle;whiteSpace=wrap;rounded=0;" parent="1" vertex="1">
          <mxGeometry x="350" y="661" width="60" height="30" as="geometry" />
        </mxCell>
        <mxCell id="Hbq8u7irhbDknvyJGnlx-10" value="&lt;font style=&quot;font-size: 14px;&quot;&gt;192.168.13.1&lt;/font&gt;" style="text;html=1;align=center;verticalAlign=middle;whiteSpace=wrap;rounded=0;" parent="1" vertex="1">
          <mxGeometry x="303" y="730" width="60" height="30" as="geometry" />
        </mxCell>
        <mxCell id="Hbq8u7irhbDknvyJGnlx-11" value="192.168.2.1" style="text;html=1;align=center;verticalAlign=middle;whiteSpace=wrap;rounded=0;" parent="1" vertex="1">
          <mxGeometry x="118.19999999999999" y="520" width="60" height="30" as="geometry" />
        </mxCell>
        <mxCell id="WF_08_gXYST_sB0Zs1tU-1" value="&lt;b&gt;&lt;font style=&quot;font-size: 17px;&quot;&gt;192.168.52.0/24&lt;/font&gt;&lt;/b&gt;" style="text;html=1;align=center;verticalAlign=middle;whiteSpace=wrap;rounded=0;" parent="1" vertex="1">
          <mxGeometry x="58.19999999999999" y="591" width="60" height="30" as="geometry" />
        </mxCell>
        <mxCell id="WF_08_gXYST_sB0Zs1tU-2" value="" style="image;html=1;image=img/lib/clip_art/networking/Router_Icon_128x128.png" parent="1" vertex="1">
          <mxGeometry x="851.52" y="531" width="68.48" height="45" as="geometry" />
        </mxCell>
        <mxCell id="WF_08_gXYST_sB0Zs1tU-12" value="20.20.5.1" style="text;html=1;align=center;verticalAlign=middle;whiteSpace=wrap;rounded=0;" parent="1" vertex="1">
          <mxGeometry x="824.0000000000001" y="572.0000000000001" width="60" height="30" as="geometry" />
        </mxCell>
        <mxCell id="WF_08_gXYST_sB0Zs1tU-13" value="" style="endArrow=none;html=1;rounded=0;entryX=0;entryY=0.25;entryDx=0;entryDy=0;" parent="1" source="WF_08_gXYST_sB0Zs1tU-15" target="WF_08_gXYST_sB0Zs1tU-2" edge="1">
          <mxGeometry width="50" height="50" relative="1" as="geometry">
            <mxPoint x="803" y="505.8" as="sourcePoint" />
            <mxPoint x="877" y="682.8" as="targetPoint" />
          </mxGeometry>
        </mxCell>
        <mxCell id="WF_08_gXYST_sB0Zs1tU-16" value="20.20.4.1" style="text;html=1;align=center;verticalAlign=middle;whiteSpace=wrap;rounded=0;" parent="1" vertex="1">
          <mxGeometry x="810.0000000000001" y="525.0000000000001" width="60" height="30" as="geometry" />
        </mxCell>
        <mxCell id="WF_08_gXYST_sB0Zs1tU-18" value="&lt;b&gt;192.168.3.0/24&lt;/b&gt;" style="text;html=1;align=center;verticalAlign=middle;whiteSpace=wrap;rounded=0;" parent="1" vertex="1">
          <mxGeometry x="640" y="779" width="60" height="30" as="geometry" />
        </mxCell>
        <mxCell id="WF_08_gXYST_sB0Zs1tU-20" value="&lt;b&gt;&lt;font style=&quot;font-size: 17px;&quot;&gt;192.168.9.0/24&lt;/font&gt;&lt;/b&gt;" style="text;html=1;align=center;verticalAlign=middle;whiteSpace=wrap;rounded=0;" parent="1" vertex="1">
          <mxGeometry x="943.9999999999999" y="893" width="60" height="30" as="geometry" />
        </mxCell>
        <mxCell id="WF_08_gXYST_sB0Zs1tU-21" value="&lt;b&gt;&lt;font style=&quot;font-size: 17px;&quot;&gt;192.168.2.1/24&lt;/font&gt;&lt;/b&gt;" style="text;html=1;align=center;verticalAlign=middle;whiteSpace=wrap;rounded=0;" parent="1" vertex="1">
          <mxGeometry x="1216.0000000000002" y="701" width="60" height="30" as="geometry" />
        </mxCell>
        <mxCell id="WF_08_gXYST_sB0Zs1tU-26" value="&lt;b&gt;&lt;font style=&quot;font-size: 17px;&quot;&gt;192.168.1.0/24&lt;/font&gt;&lt;/b&gt;" style="text;html=1;align=center;verticalAlign=middle;resizable=0;points=[];autosize=1;strokeColor=none;fillColor=none;" parent="1" vertex="1">
          <mxGeometry x="958.6" y="314" width="131" height="32" as="geometry" />
        </mxCell>
        <mxCell id="WF_08_gXYST_sB0Zs1tU-28" value="&lt;font style=&quot;font-size: 17px;&quot;&gt;&lt;b&gt;192.168.13.0/24&lt;/b&gt;&lt;/font&gt;" style="text;html=1;align=center;verticalAlign=middle;whiteSpace=wrap;rounded=0;" parent="1" vertex="1">
          <mxGeometry x="330" y="923" width="60" height="30" as="geometry" />
        </mxCell>
        <mxCell id="WF_08_gXYST_sB0Zs1tU-31" value="&lt;b&gt;&lt;font style=&quot;font-size: 17px;&quot;&gt;120.0.176.0/22&lt;/font&gt;&lt;/b&gt;" style="text;html=1;align=center;verticalAlign=middle;whiteSpace=wrap;rounded=0;" parent="1" vertex="1">
          <mxGeometry x="543" y="511" width="60" height="30" as="geometry" />
        </mxCell>
        <mxCell id="WF_08_gXYST_sB0Zs1tU-35" value="10.10.20.2" style="text;html=1;align=center;verticalAlign=middle;whiteSpace=wrap;rounded=0;" parent="1" vertex="1">
          <mxGeometry x="275.99999999999994" y="512" width="60" height="30" as="geometry" />
        </mxCell>
        <mxCell id="WF_08_gXYST_sB0Zs1tU-39" value="" style="endArrow=none;html=1;rounded=0;entryX=0;entryY=0.75;entryDx=0;entryDy=0;" parent="1" target="q4TCAZ6g-jRqFP3uvYXG-93" edge="1">
          <mxGeometry width="50" height="50" relative="1" as="geometry">
            <mxPoint x="547" y="391" as="sourcePoint" />
            <mxPoint x="674" y="277" as="targetPoint" />
          </mxGeometry>
        </mxCell>
        <mxCell id="q4TCAZ6g-jRqFP3uvYXG-93" value="120.0.176.1" style="text;html=1;align=center;verticalAlign=middle;whiteSpace=wrap;rounded=0;" parent="1" vertex="1">
          <mxGeometry x="536" y="363" width="60" height="30" as="geometry" />
        </mxCell>
        <mxCell id="WF_08_gXYST_sB0Zs1tU-40" value="" style="endArrow=none;html=1;rounded=0;" parent="1" source="q4TCAZ6g-jRqFP3uvYXG-95" target="WF_08_gXYST_sB0Zs1tU-38" edge="1">
          <mxGeometry width="50" height="50" relative="1" as="geometry">
            <mxPoint x="410" y="329" as="sourcePoint" />
            <mxPoint x="491" y="393" as="targetPoint" />
          </mxGeometry>
        </mxCell>
        <mxCell id="WF_08_gXYST_sB0Zs1tU-38" value="120.0.176.7" style="text;html=1;align=center;verticalAlign=middle;whiteSpace=wrap;rounded=0;" parent="1" vertex="1">
          <mxGeometry x="445" y="363" width="60" height="30" as="geometry" />
        </mxCell>
        <mxCell id="WF_08_gXYST_sB0Zs1tU-42" value="" style="endArrow=none;html=1;rounded=0;" parent="1" target="WF_08_gXYST_sB0Zs1tU-36" edge="1">
          <mxGeometry width="50" height="50" relative="1" as="geometry">
            <mxPoint x="556" y="427" as="sourcePoint" />
            <mxPoint x="733" y="485" as="targetPoint" />
          </mxGeometry>
        </mxCell>
        <mxCell id="WF_08_gXYST_sB0Zs1tU-36" value="120.0.176.3" style="text;html=1;align=center;verticalAlign=middle;whiteSpace=wrap;rounded=0;" parent="1" vertex="1">
          <mxGeometry x="543" y="413.2" width="60" height="30" as="geometry" />
        </mxCell>
        <mxCell id="WF_08_gXYST_sB0Zs1tU-43" value="" style="endArrow=none;html=1;rounded=0;" parent="1" source="WF_08_gXYST_sB0Zs1tU-36" target="q4TCAZ6g-jRqFP3uvYXG-97" edge="1">
          <mxGeometry width="50" height="50" relative="1" as="geometry">
            <mxPoint x="603" y="439" as="sourcePoint" />
            <mxPoint x="733" y="484" as="targetPoint" />
          </mxGeometry>
        </mxCell>
        <mxCell id="q4TCAZ6g-jRqFP3uvYXG-97" value="120.0.176.4" style="text;html=1;align=center;verticalAlign=middle;whiteSpace=wrap;rounded=0;" parent="1" vertex="1">
          <mxGeometry x="673.6" y="460" width="60" height="30" as="geometry" />
        </mxCell>
        <mxCell id="WF_08_gXYST_sB0Zs1tU-46" value="" style="endArrow=none;html=1;rounded=0;exitX=1;exitY=0;exitDx=0;exitDy=0;" parent="1" source="q4TCAZ6g-jRqFP3uvYXG-4" target="WF_08_gXYST_sB0Zs1tU-44" edge="1">
          <mxGeometry width="50" height="50" relative="1" as="geometry">
            <mxPoint x="420" y="510" as="sourcePoint" />
            <mxPoint x="489" y="433" as="targetPoint" />
          </mxGeometry>
        </mxCell>
        <mxCell id="WF_08_gXYST_sB0Zs1tU-44" value="120.0.176.6" style="text;html=1;align=center;verticalAlign=middle;whiteSpace=wrap;rounded=0;" parent="1" vertex="1">
          <mxGeometry x="405" y="484" width="60" height="30" as="geometry" />
        </mxCell>
        <mxCell id="WF_08_gXYST_sB0Zs1tU-48" value="" style="endArrow=none;html=1;rounded=0;exitX=1;exitY=0;exitDx=0;exitDy=0;" parent="1" source="WF_08_gXYST_sB0Zs1tU-44" target="WF_08_gXYST_sB0Zs1tU-37" edge="1">
          <mxGeometry width="50" height="50" relative="1" as="geometry">
            <mxPoint x="465" y="484" as="sourcePoint" />
            <mxPoint x="489" y="433" as="targetPoint" />
          </mxGeometry>
        </mxCell>
        <mxCell id="WF_08_gXYST_sB0Zs1tU-37" value="120.0.176.5" style="text;html=1;align=center;verticalAlign=middle;whiteSpace=wrap;rounded=0;" parent="1" vertex="1">
          <mxGeometry x="445" y="430" width="60" height="30" as="geometry" />
        </mxCell>
        <mxCell id="WF_08_gXYST_sB0Zs1tU-49" value="" style="endArrow=none;html=1;rounded=0;" parent="1" target="q4TCAZ6g-jRqFP3uvYXG-95" edge="1">
          <mxGeometry width="50" height="50" relative="1" as="geometry">
            <mxPoint x="410" y="329" as="sourcePoint" />
            <mxPoint x="455" y="363" as="targetPoint" />
          </mxGeometry>
        </mxCell>
        <mxCell id="q4TCAZ6g-jRqFP3uvYXG-95" value="120.0.176.8" style="text;html=1;align=center;verticalAlign=middle;whiteSpace=wrap;rounded=0;" parent="1" vertex="1">
          <mxGeometry x="390" y="316" width="60" height="30" as="geometry" />
        </mxCell>
        <mxCell id="WF_08_gXYST_sB0Zs1tU-50" value="Siège Sociale" style="text;strokeColor=none;fillColor=none;html=1;fontSize=24;fontStyle=1;verticalAlign=middle;align=center;" parent="1" vertex="1">
          <mxGeometry x="858.6" y="441.2" width="100" height="40" as="geometry" />
        </mxCell>
        <mxCell id="WF_08_gXYST_sB0Zs1tU-51" value="" style="fontColor=#0066CC;verticalAlign=top;verticalLabelPosition=bottom;labelPosition=center;align=center;html=1;outlineConnect=0;fillColor=#CCCCCC;strokeColor=#6881B3;gradientColor=none;gradientDirection=north;strokeWidth=2;shape=mxgraph.networks.scanner;" parent="1" vertex="1">
          <mxGeometry x="90" y="224" width="59.6" height="42" as="geometry" />
        </mxCell>
        <mxCell id="WF_08_gXYST_sB0Zs1tU-52" value="" style="fontColor=#0066CC;verticalAlign=top;verticalLabelPosition=bottom;labelPosition=center;align=center;html=1;outlineConnect=0;fillColor=#CCCCCC;strokeColor=#6881B3;gradientColor=none;gradientDirection=north;strokeWidth=2;shape=mxgraph.networks.mobile;" parent="1" vertex="1">
          <mxGeometry x="93.6" y="289.5" width="30" height="52" as="geometry" />
        </mxCell>
        <mxCell id="WF_08_gXYST_sB0Zs1tU-54" value="" style="fontColor=#0066CC;verticalAlign=top;verticalLabelPosition=bottom;labelPosition=center;align=center;html=1;outlineConnect=0;fillColor=#CCCCCC;strokeColor=#6881B3;gradientColor=none;gradientDirection=north;strokeWidth=2;shape=mxgraph.networks.virtual_pc;" parent="1" vertex="1">
          <mxGeometry x="118.19999999999999" y="132.95" width="62" height="60.5" as="geometry" />
        </mxCell>
        <mxCell id="WF_08_gXYST_sB0Zs1tU-56" value="DSI" style="text;strokeColor=none;fillColor=none;html=1;fontSize=24;fontStyle=1;verticalAlign=middle;align=center;" parent="1" vertex="1">
          <mxGeometry x="1207" y="179" width="100" height="40" as="geometry" />
        </mxCell>
        <mxCell id="WF_08_gXYST_sB0Zs1tU-57" value="Dept 1" style="text;strokeColor=none;fillColor=none;html=1;fontSize=24;fontStyle=1;verticalAlign=middle;align=center;" parent="1" vertex="1">
          <mxGeometry x="1187" y="546.4300000000001" width="100" height="40" as="geometry" />
        </mxCell>
        <mxCell id="WF_08_gXYST_sB0Zs1tU-58" value="Dept 2" style="text;strokeColor=none;fillColor=none;html=1;fontSize=24;fontStyle=1;verticalAlign=middle;align=center;" parent="1" vertex="1">
          <mxGeometry x="890" y="820" width="100" height="40" as="geometry" />
        </mxCell>
        <mxCell id="WF_08_gXYST_sB0Zs1tU-60" value="Dept 3" style="text;strokeColor=none;fillColor=none;html=1;fontSize=24;fontStyle=1;verticalAlign=middle;align=center;" parent="1" vertex="1">
          <mxGeometry x="729" y="766.4" width="100" height="40" as="geometry" />
        </mxCell>
        <mxCell id="WF_08_gXYST_sB0Zs1tU-61" value="Site&amp;nbsp;&lt;div&gt;Secondaire&lt;/div&gt;" style="text;strokeColor=none;fillColor=none;html=1;fontSize=24;fontStyle=1;verticalAlign=middle;align=center;" parent="1" vertex="1">
          <mxGeometry x="178.2" y="628" width="100" height="40" as="geometry" />
        </mxCell>
        <mxCell id="WF_08_gXYST_sB0Zs1tU-62" value="&lt;div style=&quot;font-size: 15px;&quot;&gt;&lt;b style=&quot;background-color: initial;&quot;&gt;20.20.2.0/30&lt;/b&gt;&lt;br&gt;&lt;/div&gt;" style="text;html=1;align=center;verticalAlign=middle;whiteSpace=wrap;rounded=0;" parent="1" vertex="1">
          <mxGeometry x="944" y="572" width="110" height="50" as="geometry" />
        </mxCell>
        <mxCell id="WF_08_gXYST_sB0Zs1tU-65" value="" style="endArrow=none;html=1;rounded=0;" parent="1" source="WF_08_gXYST_sB0Zs1tU-2" target="WF_08_gXYST_sB0Zs1tU-19" edge="1">
          <mxGeometry width="50" height="50" relative="1" as="geometry">
            <mxPoint x="895" y="576" as="sourcePoint" />
            <mxPoint x="969" y="753" as="targetPoint" />
          </mxGeometry>
        </mxCell>
        <mxCell id="WF_08_gXYST_sB0Zs1tU-19" value="20.20.1.2" style="text;html=1;align=center;verticalAlign=middle;whiteSpace=wrap;rounded=0;" parent="1" vertex="1">
          <mxGeometry x="882" y="598" width="60" height="30" as="geometry" />
        </mxCell>
        <mxCell id="WF_08_gXYST_sB0Zs1tU-66" value="" style="endArrow=none;html=1;rounded=0;" parent="1" source="WF_08_gXYST_sB0Zs1tU-19" target="q4TCAZ6g-jRqFP3uvYXG-107" edge="1">
          <mxGeometry width="50" height="50" relative="1" as="geometry">
            <mxPoint x="918" y="628" as="sourcePoint" />
            <mxPoint x="969" y="753" as="targetPoint" />
          </mxGeometry>
        </mxCell>
        <mxCell id="q4TCAZ6g-jRqFP3uvYXG-107" value="20.20.1.1" style="text;html=1;align=center;verticalAlign=middle;whiteSpace=wrap;rounded=0;" parent="1" vertex="1">
          <mxGeometry x="930" y="713" width="60" height="30" as="geometry" />
        </mxCell>
        <mxCell id="WF_08_gXYST_sB0Zs1tU-67" value="" style="endArrow=none;html=1;rounded=0;entryX=1;entryY=0.5;entryDx=0;entryDy=0;" parent="1" source="q4TCAZ6g-jRqFP3uvYXG-106" target="WF_08_gXYST_sB0Zs1tU-6" edge="1">
          <mxGeometry width="50" height="50" relative="1" as="geometry">
            <mxPoint x="1090" y="640" as="sourcePoint" />
            <mxPoint x="920" y="554" as="targetPoint" />
          </mxGeometry>
        </mxCell>
        <mxCell id="WF_08_gXYST_sB0Zs1tU-6" value="20.20.2.2" style="text;html=1;align=center;verticalAlign=middle;whiteSpace=wrap;rounded=0;" parent="1" vertex="1">
          <mxGeometry x="910.0000000000001" y="550" width="60" height="30" as="geometry" />
        </mxCell>
        <mxCell id="WF_08_gXYST_sB0Zs1tU-68" value="" style="endArrow=none;html=1;rounded=0;entryX=1;entryY=0.5;entryDx=0;entryDy=0;" parent="1" target="q4TCAZ6g-jRqFP3uvYXG-106" edge="1">
          <mxGeometry width="50" height="50" relative="1" as="geometry">
            <mxPoint x="1090" y="640" as="sourcePoint" />
            <mxPoint x="970" y="565" as="targetPoint" />
          </mxGeometry>
        </mxCell>
        <mxCell id="q4TCAZ6g-jRqFP3uvYXG-106" value="20.20.2.1" style="text;html=1;align=center;verticalAlign=middle;whiteSpace=wrap;rounded=0;" parent="1" vertex="1">
          <mxGeometry x="1037" y="618.5" width="60" height="30" as="geometry" />
        </mxCell>
        <mxCell id="WF_08_gXYST_sB0Zs1tU-70" value="" style="endArrow=none;html=1;rounded=0;exitX=1;exitY=0.25;exitDx=0;exitDy=0;" parent="1" source="WF_08_gXYST_sB0Zs1tU-2" target="WF_08_gXYST_sB0Zs1tU-9" edge="1">
          <mxGeometry width="50" height="50" relative="1" as="geometry">
            <mxPoint x="920" y="542" as="sourcePoint" />
            <mxPoint x="1022" y="456" as="targetPoint" />
          </mxGeometry>
        </mxCell>
        <mxCell id="WF_08_gXYST_sB0Zs1tU-9" value="20.20.3.2" style="text;html=1;align=center;verticalAlign=middle;whiteSpace=wrap;rounded=0;" parent="1" vertex="1">
          <mxGeometry x="907.0000000000001" y="512.0000000000001" width="60" height="30" as="geometry" />
        </mxCell>
        <mxCell id="WF_08_gXYST_sB0Zs1tU-71" value="" style="endArrow=none;html=1;rounded=0;exitX=1;exitY=0.25;exitDx=0;exitDy=0;" parent="1" source="WF_08_gXYST_sB0Zs1tU-9" target="WF_08_gXYST_sB0Zs1tU-8" edge="1">
          <mxGeometry width="50" height="50" relative="1" as="geometry">
            <mxPoint x="967" y="520" as="sourcePoint" />
            <mxPoint x="1022" y="456" as="targetPoint" />
          </mxGeometry>
        </mxCell>
        <mxCell id="WF_08_gXYST_sB0Zs1tU-8" value="20.20.3.1" style="text;html=1;align=center;verticalAlign=middle;whiteSpace=wrap;rounded=0;" parent="1" vertex="1">
          <mxGeometry x="984.0000000000001" y="455.00000000000006" width="60" height="30" as="geometry" />
        </mxCell>
        <mxCell id="WF_08_gXYST_sB0Zs1tU-72" value="" style="endArrow=none;html=1;rounded=0;entryX=0;entryY=0.25;entryDx=0;entryDy=0;" parent="1" target="WF_08_gXYST_sB0Zs1tU-15" edge="1">
          <mxGeometry width="50" height="50" relative="1" as="geometry">
            <mxPoint x="803" y="505.8" as="sourcePoint" />
            <mxPoint x="852" y="542" as="targetPoint" />
          </mxGeometry>
        </mxCell>
        <mxCell id="WF_08_gXYST_sB0Zs1tU-15" value="20.20.4.2" style="text;html=1;align=center;verticalAlign=middle;whiteSpace=wrap;rounded=0;" parent="1" vertex="1">
          <mxGeometry x="778.0000000000001" y="495.0000000000001" width="60" height="30" as="geometry" />
        </mxCell>
        <mxCell id="WF_08_gXYST_sB0Zs1tU-81" value="20.20.5.2" style="text;html=1;align=center;verticalAlign=middle;whiteSpace=wrap;rounded=0;" parent="1" vertex="1">
          <mxGeometry x="772.0000000000001" y="640.5000000000001" width="60" height="30" as="geometry" />
        </mxCell>
        <mxCell id="WF_08_gXYST_sB0Zs1tU-82" value="&lt;div style=&quot;font-size: 15px;&quot;&gt;&lt;b style=&quot;background-color: initial;&quot;&gt;20.20.5.0/30&lt;/b&gt;&lt;br&gt;&lt;/div&gt;" style="text;html=1;align=center;verticalAlign=middle;whiteSpace=wrap;rounded=0;" parent="1" vertex="1">
          <mxGeometry x="750" y="608.5" width="110" height="50" as="geometry" />
        </mxCell>
        <mxCell id="WF_08_gXYST_sB0Zs1tU-85" value="&lt;div style=&quot;font-size: 15px;&quot;&gt;&lt;b style=&quot;background-color: initial;&quot;&gt;20.20.4.0/30&lt;/b&gt;&lt;br&gt;&lt;/div&gt;" style="text;html=1;align=center;verticalAlign=middle;whiteSpace=wrap;rounded=0;" parent="1" vertex="1">
          <mxGeometry x="728" y="528.5" width="110" height="50" as="geometry" />
        </mxCell>
        <mxCell id="WF_08_gXYST_sB0Zs1tU-86" value="&lt;div style=&quot;font-size: 15px;&quot;&gt;&lt;b style=&quot;background-color: initial;&quot;&gt;20.20.3.0/30&lt;/b&gt;&lt;br&gt;&lt;/div&gt;" style="text;html=1;align=center;verticalAlign=middle;whiteSpace=wrap;rounded=0;" parent="1" vertex="1">
          <mxGeometry x="961" y="502" width="110" height="50" as="geometry" />
        </mxCell>
        <mxCell id="WF_08_gXYST_sB0Zs1tU-90" value="&lt;div style=&quot;font-size: 15px;&quot;&gt;&lt;b style=&quot;background-color: initial;&quot;&gt;10.10.10.0/30&lt;/b&gt;&lt;br&gt;&lt;/div&gt;" style="text;html=1;align=center;verticalAlign=middle;whiteSpace=wrap;rounded=0;" parent="1" vertex="1">
          <mxGeometry x="343.99999999999994" y="613.5" width="110" height="50" as="geometry" />
        </mxCell>
        <mxCell id="WF_08_gXYST_sB0Zs1tU-91" value="&lt;div style=&quot;font-size: 15px;&quot;&gt;&lt;b style=&quot;background-color: initial;&quot;&gt;10.10.20.0/30&lt;/b&gt;&lt;br&gt;&lt;/div&gt;" style="text;html=1;align=center;verticalAlign=middle;whiteSpace=wrap;rounded=0;" parent="1" vertex="1">
          <mxGeometry x="229.99999999999994" y="536" width="110" height="50" as="geometry" />
        </mxCell>
      </root>
    </mxGraphModel>
  </diagram>
</mxfile>
